<?xml version="1.0" encoding="UTF-8"?>
<!DOCTYPE svg PUBLIC "-//W3C//DTD SVG 1.1//EN" "http://www.w3.org/Graphics/SVG/1.1/DTD/svg11.dtd">
<!-- Creator: CorelDRAW X6 -->
<svg xmlns="http://www.w3.org/2000/svg" xml:space="preserve" width="900px" height="760px" version="1.1" style="shape-rendering:geometricPrecision; text-rendering:geometricPrecision; image-rendering:optimizeQuality; fill-rule:evenodd; clip-rule:evenodd"
viewBox="0 0 18841 15921"
 xmlns:xlink="http://www.w3.org/1999/xlink">
 <defs>
  <style type="text/css">
   <![CDATA[
    .fil11 {fill:#040404}
    .fil0 {fill:#14120B}
    .fil7 {fill:#2A2C32}
    .fil4 {fill:#2B241C}
    .fil1 {fill:#3B3324}
    .fil10 {fill:#474339}
    .fil8 {fill:#665847}
    .fil12 {fill:#776A56}
    .fil2 {fill:#968B76}
    .fil5 {fill:#A69C86}
    .fil9 {fill:#BAB6A6}
    .fil3 {fill:#D9D7C6}
    .fil6 {fill:#E9E7D6}
    .fil13 {fill:#F9F5E5}
   ]]>
  </style>
 </defs>
 <g id="Camada_x0020_1">
  <metadata id="CorelCorpID_0Corel-Layer"/>
  <g id="_882700544">
   <path class="fil0" d="M4862 4199c-301,242 -584,576 -769,1004 -120,280 -337,1265 -403,1345 -26,281 -236,1017 -322,1216 -65,149 -63,269 -61,447 13,951 178,627 -241,1243 -82,120 -92,200 -200,327 12,-402 50,-664 25,-1086 -16,-278 -94,-837 41,-1038 -45,-230 11,-546 56,-788 -166,183 -104,398 -184,791l-136 1114c-38,144 -16,248 -46,388 -39,187 -47,-34 -171,231 -117,249 66,212 -123,289l25 182c-126,70 96,-51 -91,37 -87,41 -52,24 -90,53 174,77 84,19 161,149l-192 117c72,150 181,-4 64,270 -37,87 -17,28 -38,75 -165,357 -26,334 43,491 94,216 -10,231 -86,343 -150,220 -42,279 -215,583l-292 -60c-5,5 -15,17 -20,22 -120,107 -419,50 -585,41 -216,27 -361,138 -478,213 -79,236 -129,372 -18,607 64,-235 114,-311 313,-423 201,-107 470,39 617,137 43,290 91,334 67,507 -155,8 -13,14 -92,-65l-80 -176c-123,211 -162,366 -328,342l11 373c72,-247 -89,-150 301,-162 0,269 44,352 -173,469 15,20 92,144 94,150l-70 369 104 60 224 -417c90,-217 95,-470 116,-715 316,-83 539,-735 828,-1279 96,-180 161,-372 293,-501 10,313 -38,607 -30,917 8,288 57,578 57,859 126,-183 251,-2865 425,-3075 180,-218 662,-192 941,-105 99,52 169,66 255,106 198,93 104,63 138,150 159,60 160,96 114,212 -103,265 4,105 -31,310l45 103c-160,-62 -229,-15 -339,97l228 37c7,-13 29,5 41,13 -53,156 46,131 -110,101 -44,198 -7,87 -78,247 56,64 -82,85 189,94 193,32 491,19 334,354l-179 249c115,181 102,-8 104,193 2,266 -60,165 -110,168l201 -68c13,-5 32,-15 49,-20 20,459 -145,876 -90,1054 37,120 214,172 101,499 -83,243 -140,68 -232,400l119 -100c171,-25 35,-51 150,43 -222,182 -163,272 -217,410 51,23 100,40 173,72l167 85 -171 1045 935 0 -369 -2578c-92,-536 -146,-2385 -253,-2645 -49,-171 -4,3 -104,-93 -178,-171 -403,-848 -441,-1089 -52,-328 -57,-346 111,-500 190,66 -12,113 353,90 -12,-6 -29,-11 -37,-15l-174 -105c329,14 383,-72 899,-63l1017 168c72,39 52,66 80,188 147,4 326,-14 392,77 178,-140 149,191 149,-199l99 117c69,53 90,69 142,97l114 49c203,96 165,249 169,265 33,130 93,20 177,367 41,168 30,-171 5,89 -21,223 -38,185 52,430l260 1802c20,304 -96,82 1,659 38,225 63,493 100,763 83,640 62,1486 69,2127l555 0c0,-659 38,-2149 -61,-2746 -105,-633 33,-511 -48,-842 210,58 3,44 212,31 136,-9 73,16 146,-49 110,165 1,75 -95,134 -125,77 13,-124 -123,116 411,76 289,-117 392,124l25 71c311,-83 674,-348 963,-482 11,-5 24,-10 36,-15l145 -73c-13,-13 -22,-35 -28,-48 -73,-159 -21,-194 -22,-197 -199,140 -312,83 -605,144 138,-240 16,-115 194,-183 186,-70 681,-251 747,-442l-402 58c16,-236 -12,-86 35,-180 4,-9 15,-21 19,-29l50 -63c4,-20 20,-21 28,-33l-533 100c-241,66 -623,58 -724,397 -76,254 48,69 -130,253 -322,335 295,165 -320,321 100,-428 356,-707 464,-924l253 -631c0,-18 -5,-25 -9,-37 -43,206 8,106 -165,297l-519 288 -5 -401c50,-454 -59,-1372 -127,-1827 -72,150 -1,413 -91,647 -243,-86 -182,208 -201,-485 -8,-299 -12,-158 -148,-337l-248 -14c-227,-101 -477,-120 -737,-186 -434,-110 -506,-222 -672,-254 133,193 86,-15 262,250l-318 30c-278,-44 -160,27 -290,51 -99,18 -201,-17 -331,-22 -245,-9 -479,62 -727,58 -326,7 -654,52 -914,152l-140 55 -11 -544c-126,-167 -30,-211 -113,-394 -99,-272 42,-93 3,-385 -17,-128 -67,-220 -80,-460 -14,-265 57,-662 14,-818 -77,-278 -193,-427 -119,-715l161 -590c103,-184 20,-56 111,-138 -39,303 -181,636 -172,918l299 236 -19 -954c219,-681 194,-557 484,-762 -32,-142 85,147 -35,-43 -47,-75 -17,83 -22,-49 130,-103 202,-137 257,-317 -71,45 -357,187 -420,214z"/>
   <path class="fil1" d="M6976 15921l1752 0c-7,-640 15,-1487 -69,-2127l-48 -335c-141,77 -63,39 -64,-82l-23 -163c-203,-615 -47,-264 -117,-711l-23 -146c-23,-155 -69,-600 -253,-598 -6,0 -308,59 -339,63 105,173 136,133 125,250 -28,282 -15,-110 -262,-31 -128,41 -97,59 -165,210 -47,105 -4,44 -46,99 -84,-79 -190,-170 -224,-308 122,-146 0,61 86,0 -185,-158 -132,-459 -53,-669l91 -190c186,233 8,37 99,315 57,-38 66,77 50,-171l-21 -337c-131,-55 -107,-39 -294,-48 -490,-22 -344,-125 -384,-210 -94,-197 -148,45 -108,-178 31,-170 -15,-14 29,-61 126,-136 167,13 246,-164 86,-192 208,-42 278,-366l-352 41c-19,-99 107,-185 -4,-282l162 -167c-208,-121 30,-37 -318,-274 -174,-119 -197,-126 -412,-173 78,105 54,51 80,92 128,207 46,332 43,343 -4,15 -14,32 -19,44 -4,12 -12,29 -21,43 -147,-65 -93,-154 -199,-211 -36,76 -26,-9 -7,107 52,322 250,206 372,279 -30,109 -24,167 -177,87 -5,-3 -17,-16 -27,-20l53 430c6,206 -55,432 -29,557 309,154 96,41 231,-19 -14,50 -89,87 -118,268 187,-16 128,-86 232,-151 -150,361 -18,125 98,268 -88,-42 126,-114 -66,8 -4,2 -17,11 -21,14l-62 75c56,160 7,110 148,160 -290,-4 -153,45 -149,88 -7,8 -13,14 -14,28 -41,549 -209,322 -73,793 18,61 14,298 38,430l175 581c5,14 -3,-119 27,63 35,216 -81,162 -31,433 21,115 20,-82 18,88 0,7 -2,21 -3,28 -1,12 -15,46 -18,59 -74,328 79,514 -41,705 172,94 187,116 117,435 -1,-129 48,-150 153,-212 -12,152 -27,176 -49,293l-18 258c0,6 3,21 3,27 0,7 1,22 1,30l-8 218c1,7 5,24 6,30 1,7 6,26 7,32 1,6 7,22 8,33z"/>
   <path class="fil0" d="M9325 4939l-86 185c-124,274 -69,312 -94,666l-33 -557c25,167 5,211 -25,370 -82,450 66,957 39,1304l207 11c400,0 44,-17 198,95 52,80 1480,1063 1735,1201 338,183 644,370 937,555 352,222 665,424 1170,365 -7,-23 -7,16 -89,-126 246,46 248,76 514,41 503,-67 81,303 749,163 245,-51 292,-134 342,-289 -150,-36 -203,7 -368,-49 -67,-23 -41,23 -143,-150 -5,-9 -12,-29 -22,-41 -390,53 -266,105 -415,73 -459,-98 -257,10 -462,-108 -137,-79 -19,-25 -134,-61 -740,-236 191,-104 -737,-234 -169,-24 -225,-17 -346,39l-341 -388c-140,-123 -164,-114 -251,-256l-127 -71 230 -213c9,-6 21,-13 30,-19 9,-6 22,-13 32,-19 353,-233 40,-347 494,-468 -38,162 -65,162 -157,269l-130 173c406,-220 705,-508 1085,-527 464,-24 -170,159 262,56 -117,-65 -200,-126 -393,-131 -135,2 -242,-5 -372,-12 -206,-11 -60,5 -290,64 -258,67 -496,-48 -824,-2 -327,13 -362,6 -609,-103 -107,-47 -80,-22 -175,-82l-433 -417c-68,-114 10,72 -56,-124 58,-48 11,-34 111,-74 92,-36 61,-25 166,-33 -255,-174 -2,49 -286,20 -133,-14 -126,6 -148,-111 -46,-244 -49,-8 117,-189 -291,-45 -468,-209 -617,-459 433,0 841,-27 1243,54 -168,185 154,114 -259,116 -129,0 -6,-74 -288,-10 -41,72 -44,-6 8,99 199,-25 515,-68 671,28 -87,-102 -221,-271 -342,-372 -132,-111 -314,-181 -437,-288l-639 -114c-9,24 -55,148 -65,165 -70,123 -4,48 -106,137l-43 -152z"/>
   <path class="fil2" d="M5920 15921l490 0c-4,-61 -10,-134 -21,-194l-65 -328c-238,-600 -78,171 -75,-622 -105,117 29,45 102,-155 75,-205 16,-90 -6,-354l16 -176c11,-61 -4,-38 20,-99 47,-119 30,-64 172,-200l51 -49c-19,8 74,167 -133,-76l-221 -181 275 -31c-21,-25 -79,-17 -104,-22 -178,-36 -22,29 -143,-51l167 -202 -134 -853c-179,39 -157,44 -242,-59 -5,-6 -12,-23 -20,-33l200 7 -118 -220c-91,-267 -84,-328 40,-461 59,5 216,109 98,80 45,-96 55,-207 108,-267 -122,36 0,54 -231,88 74,-202 107,-1120 103,-1131 -4,-13 -24,-33 -46,-35l-42 4c-328,31 284,84 -77,12 -24,-132 40,-25 -32,-149l-200 93c-44,188 13,193 -104,382 -142,-170 -163,-131 -50,-385 183,-410 158,-363 319,-397 -62,-37 5,-35 -110,-33 -123,2 14,-20 -160,40 15,-150 7,-217 96,-328 92,-113 70,-56 214,-79 2,-12 24,-150 24,-150 41,-127 -33,-47 59,-113 -486,-49 -343,-89 -377,-132 -121,-83 -390,23 -546,43 -365,23 -163,-24 -353,-90 -169,154 -164,172 -111,500 38,241 263,918 441,1089 100,97 55,-78 104,93 107,260 161,2110 253,2645l369 2578z"/>
   <path class="fil3" d="M5439 3727l-158 258c-55,180 -127,214 -257,317 4,132 -26,-27 22,49 120,190 2,-99 35,43 -290,205 -265,81 -484,762 165,-45 156,-114 544,-9l82 31c28,323 -153,227 52,415 -364,-61 -231,247 -255,410 -19,129 85,-21 -46,64 -190,125 85,-97 -74,26 -111,86 19,-137 -13,52 -1,9 19,44 -30,128 43,-86 112,143 -16,-42 -99,-143 -163,-113 -226,-121l-299 -236c-9,-281 133,-615 172,-918 -91,82 -8,-45 -111,138l-161 590c-73,288 42,437 119,715 43,156 -28,553 -14,818 13,240 62,332 80,460 39,293 -103,114 -3,385 127,-40 68,-34 159,-61 153,-45 685,-53 1136,-200 121,-39 47,-36 210,-43l-62 -246c-242,0 -136,-37 -294,60 -40,-131 7,-65 -43,-142 -263,74 -590,154 -792,34 91,-198 -70,-117 522,-241 145,-30 417,-111 515,-128l37 -128c-443,-185 -348,-105 -430,-298 72,-164 250,-257 447,-298 10,16 26,23 26,51 0,23 18,36 16,45 -5,25 28,56 -90,101 417,-114 151,-17 246,52 -66,143 -8,203 -99,100 125,-89 7,-189 199,-298 -139,147 -77,47 -199,-1 51,-278 34,-295 255,-350l375 -100c128,-17 -72,-84 66,3l97 1452 45 298c21,242 96,426 197,614 -142,-833 -258,-617 -26,-1562 66,-280 -105,-1913 187,-2597 207,-486 171,-205 344,-558 -122,-31 -143,-15 -197,130l-52 65c-8,11 -38,50 -47,62 -363,499 -162,264 -348,712l-109 558c-62,480 -48,410 -378,640 -110,77 -137,131 -306,195 -102,39 -210,80 -329,114 -70,173 -29,20 -408,257 -23,14 -177,111 -198,116 -478,113 -124,51 -263,-97 75,-34 138,-66 211,-104l65 -33c8,-5 22,-13 29,-18l110 -160c110,-399 294,-324 521,-657 -6,-162 72,-44 -38,-121 -46,185 -222,307 -255,46 -61,-482 486,84 573,-611 78,-625 247,-206 103,-442 -92,-151 -73,100 -26,-55l348 -2c31,40 -4,142 96,160 85,15 22,30 117,-57l185 -227c-287,66 -607,33 -916,102 -930,210 -305,304 -676,163l-99 -72c181,-66 154,-79 291,-166 135,-85 152,-83 356,-83l50 -149c-20,23 37,91 -132,48 -5,-1 -20,-8 -24,-10 -3,-2 -15,-13 -16,-16 -106,-198 287,-14 468,-227 95,-112 110,-106 55,-306 -300,-76 -383,-147 -505,65 -8,-10 -17,-26 -20,-31 -130,-186 13,-77 -61,-70 -29,234 2,278 -178,390z"/>
   <path class="fil4" d="M8594 4562c-67,149 -121,217 -220,354 -80,110 -33,29 -95,148 -47,90 -59,133 -96,211 -184,56 -148,260 -315,398l-336 490c-144,129 -270,244 -467,353l-156 256c-232,946 -116,729 26,1562 -100,-187 -176,-372 -197,-614 -142,68 -111,18 -235,167 58,210 290,-88 3,119 -277,199 32,311 32,311 115,82 159,84 307,95 11,212 91,63 78,291l318 -30c-177,-265 -129,-56 -262,-250 166,33 238,144 672,254 260,66 510,85 737,186l33 -157c72,-118 10,-71 137,-119 -443,43 233,-21 -418,-388 -111,-62 -103,-37 -189,-96l437 4c-8,-10 -49,-115 64,-153l-327 -208c-92,-192 -37,-77 13,-38 -14,9 -22,68 -199,145 -233,-198 -65,-186 -296,-257 -2,-1 -102,-42 -102,-43 5,125 33,92 -26,204 -5,9 -15,23 -19,30l-43 56c-176,-94 -144,-141 -316,-169 35,-110 78,-220 11,-280 -151,-136 -111,35 -113,37 -185,165 62,103 -140,111 -3,-257 49,-223 66,-385l-16 -212c89,114 67,158 100,314 270,88 394,119 646,-99 -14,-8 -38,-32 -46,-18l-253 -81 -9 -254c100,-50 125,-79 240,-59 56,100 51,37 18,313 284,-93 99,-93 348,19 77,-388 43,-225 218,-509l42 -67c9,-13 17,-24 26,-37l97 -126c-298,18 -130,-4 -316,219 -589,-223 -19,44 -378,80 31,-396 183,-366 256,-445 7,-7 17,-18 23,-26 8,-11 51,-105 53,-119 24,-148 -75,-160 -11,-292 34,-38 90,-85 129,-149 73,-121 127,-285 316,-428l251 133c10,11 37,46 46,57 90,114 9,35 76,99 -4,21 -13,29 -18,62l-114 137c99,80 68,19 115,157 77,224 4,106 6,144 6,125 41,100 73,279 57,312 -191,182 56,564 -92,61 -83,5 -135,0 -3,657 -388,465 -66,1194l99 -199 50 149c82,-389 50,-431 248,-648l-23 122c-6,-138 18,-95 108,-224 10,-15 82,-114 88,-119 148,-119 -90,-81 224,-80 -155,-112 201,-95 -198,-95l-207 -11c27,-347 -121,-854 -39,-1304 29,-160 50,-204 25,-370l33 557c25,-354 -31,-392 94,-666l86 -185c-56,-154 16,-193 -34,-324 -97,-256 -253,-138 -555,-255 -92,108 -77,128 -143,202z"/>
   <path class="fil4" d="M5826 1984c-275,-229 -271,-189 -630,-91 -92,145 -389,676 -241,800 204,99 81,16 172,-21l122 -33c2,0 14,3 21,1 83,-219 29,-268 242,-337 128,-42 364,-65 462,-11l-322 160c-134,64 -250,135 -363,182 79,180 2,140 148,255 0,0 -65,-43 -148,0l174 249c-9,4 -27,-6 -31,5 -33,100 -165,-129 -252,294 96,121 148,147 257,291 180,-112 149,-157 178,-390 74,-7 -70,-117 61,70 4,5 13,21 20,31 122,-212 204,-142 505,-65 349,187 295,76 644,48 86,157 -76,-134 7,86 59,156 204,182 391,243 54,-145 76,-162 197,-130 10,8 25,8 31,24 22,73 29,24 62,47 130,87 245,152 397,110 164,-288 250,37 355,-471 97,-470 -120,-147 293,-401 258,-158 -69,-156 41,-539 96,-333 157,-399 18,-616 -18,10 -231,-105 -51,72 -221,-310 260,170 -139,-127l-72 -48c-9,-6 -25,-16 -38,-24 -263,64 -374,29 -288,348 -109,-96 -95,-119 -206,-99 0,662 78,338 280,769 45,-219 12,-111 91,-176 97,86 25,14 83,82 6,8 17,21 24,29l64 90c-25,-15 51,-141 -59,8 -63,87 -25,-27 -58,159 -321,-163 -103,-74 -195,-29l-68 58c-73,34 -3,94 -292,-127 -115,-88 -66,-70 -154,-149 58,194 88,188 243,315l197 163c8,6 24,15 36,23 -17,11 -41,3 -53,28 -11,24 -36,19 -51,25l-590 218 -103 -223c-6,10 -14,17 -17,35 -3,22 -29,52 -34,59 -36,52 77,45 -42,37 26,-85 45,-241 33,-355 -24,-230 -40,-150 -173,-244 287,-239 129,-616 68,-832l-10 -56c-1,-5 0,-19 0,-23 -12,-99 -44,-10 -41,-169l97 -234c4,-8 11,-26 21,-36 254,116 104,111 476,206 -81,-215 -87,-73 -193,-152 -104,-78 -71,-123 -78,-262 -10,-188 38,-202 -191,-241 19,191 39,94 86,307 -471,314 278,-55 -140,42 -73,17 -129,2 -171,80l-55 199c-85,295 -24,201 18,442 -16,-159 -28,-53 91,-111 32,442 -10,344 -67,771 -39,293 152,614 152,615l-225 32c-6,-293 74,-225 -120,-331 184,-142 87,-91 157,-470 26,-142 38,-34 50,-253 -98,76 52,28 -251,198 -100,56 -81,70 -85,148 -1,-14 63,-113 129,-169l-99 -119c-55,-119 -67,176 -30,-179 -27,7 -255,80 -258,80 -216,12 44,-7 -309,-128l-204 -61z"/>
   <path class="fil5" d="M2767 13249c24,430 91,892 55,1329 -35,430 -103,912 -105,1343l620 0c-60,-294 -70,-159 -5,-513l84 -406c23,-114 16,-59 14,-176 -138,206 -39,186 -135,105 -62,-52 -62,-143 -58,-247l36 -555c-80,-37 35,24 -115,14l-74 -14c5,-12 18,-25 22,-32l37 -61c132,-281 -26,185 27,-85 78,-393 121,-306 104,-533 -11,-152 0,-693 88,-831 -201,-112 -101,38 -183,-150 -2,-5 -41,-204 -46,-235 568,-66 49,-106 473,-221l307 -35c66,-1 166,5 247,1 19,36 70,62 6,152 209,-71 235,-59 392,-205 12,-11 49,-48 59,-58l-236 -126c38,-85 133,-133 204,-172 -271,-9 -133,-30 -189,-94 71,-160 34,-49 78,-247 -225,68 -344,121 -472,238 -321,292 -175,108 -103,240 4,7 23,44 27,35 4,-10 23,23 30,38 -136,0 -351,9 -488,18 -171,11 -122,38 -303,75 42,-323 282,-160 513,-584l22 -48c107,-145 392,-146 559,-164l-9 -151 360 -48c34,-205 -72,-45 31,-310 45,-117 45,-153 -114,-212l-479 458c-213,215 -329,145 -429,111l-3 -214 313 -159c226,-97 161,93 382,-219 -210,-3 -248,-33 -397,-100 123,-168 -190,-172 222,-132 -280,-87 -762,-112 -941,105 -174,210 -299,2892 -425,3075z"/>
   <path class="fil4" d="M5218 9106c156,-21 424,-126 546,-43 233,29 326,100 552,44 215,47 238,54 412,173 348,238 109,153 318,274l-162 167c110,97 -15,183 4,282l352 -41c-70,324 -192,174 -278,366 -79,177 -120,27 -246,164 -44,47 2,-108 -29,61 -40,223 15,-18 108,178 40,85 -106,188 384,210 187,8 163,-7 294,48l21 337c16,247 7,133 -50,171 -92,-278 87,-82 -99,-315l-91 190c-79,210 -133,511 53,669 -86,61 36,-146 -86,0 35,138 141,229 224,308 42,-55 -1,5 46,-99 68,-151 37,-169 165,-210 247,-78 233,313 262,31 12,-117 -20,-77 -125,-250 31,-5 333,-63 339,-63 185,-1 231,443 253,598l23 146c71,447 -86,97 117,711l23 163c1,121 -77,159 64,82l48 335c-37,-269 -62,-537 -100,-763 -97,-577 20,-355 -1,-659l-260 -1802c-90,-245 -73,-207 -52,-430 25,-260 36,79 -5,-89 -84,-346 -144,-237 -177,-367 -4,-16 34,-169 -169,-265l-114 -49c-52,-28 -72,-44 -142,-97l-99 -117c0,390 30,59 -149,199 -67,-91 -245,-73 -392,-77 -28,-122 -8,-150 -80,-188l-1017 -168c-516,-9 -570,77 -899,63l174 105c9,4 25,9 37,15z"/>
   <path class="fil1" d="M8388 8867l248 14c135,179 140,38 148,337 19,693 -43,399 201,485 90,-233 20,-496 91,-647 -62,-510 -96,-1125 35,-1620l23 -122c-199,217 -166,259 -248,648l-50 -149 -99 199c-322,-728 63,-537 66,-1194 52,5 43,61 135,0 -247,-381 0,-252 -56,-564 -33,-179 -68,-154 -73,-279 -2,-38 71,79 -6,-144 -47,-138 -16,-77 -115,-157l114 -137c5,-33 14,-41 18,-62 -67,-64 14,14 -76,-99 -9,-11 -36,-45 -46,-57l-251 -133c-189,143 -243,307 -316,428 -39,65 -95,111 -129,149 -64,131 35,144 11,292 -2,14 -45,108 -53,119 -6,8 -17,19 -23,26 -73,79 -225,48 -256,445 359,-36 -211,-303 378,-80 186,-223 19,-202 316,-219l-97 126c-10,14 -17,24 -26,37l-42 67c-176,284 -141,121 -218,509 -249,-112 -64,-112 -348,-19 33,-276 38,-213 -18,-313 -116,-19 -140,10 -240,59l9 254 253 81c8,-14 32,10 46,18 -252,218 -377,188 -646,99 -33,-156 -11,-200 -100,-314l16 212c-17,162 -69,128 -66,385 203,-8 -45,54 140,-111 2,-2 -38,-173 113,-37 67,60 24,169 -11,280 172,28 140,75 316,169l43 -56c5,-8 15,-22 19,-30 59,-111 31,-78 26,-204 1,0 100,42 102,43 231,71 63,59 296,257 177,-77 185,-136 199,-145 -51,-40 -105,-155 -13,38l327 208c-114,37 -72,143 -64,153l-437 -4c86,58 78,33 189,96 651,367 -25,431 418,388 -127,49 -65,1 -137,119l-33 157z"/>
   <path class="fil6" d="M534 12196c117,-75 261,-185 478,-213l84 -23 1 -167c147,-90 212,-123 246,-309 147,-826 176,-649 275,-925 79,-218 -105,-97 141,-358 -136,-59 -38,-11 -140,-4 -11,1 -49,5 -57,5l-58 -1c49,-175 73,-159 160,-268 229,-287 52,-130 72,-195 6,-19 227,-150 39,-273 -89,-58 -44,-36 -133,-32 387,-220 250,-185 277,-329 36,-191 107,-84 167,-444 69,-411 245,-672 334,-906 218,-575 192,-570 188,-964 -4,-316 200,-270 193,-999 -352,146 -513,982 -715,1500 -196,504 -494,973 -639,1500 -149,539 -336,684 -522,1598 -35,171 -61,344 -96,464 -75,254 -104,119 -139,395 -56,442 -154,485 -155,949z"/>
   <path class="fil7" d="M9203 10884l5 401 519 -288c172,-191 121,-91 165,-297 5,12 9,19 9,37l-253 631c-108,216 -364,496 -464,924 615,-156 -2,14 320,-321 178,-184 54,0 130,-253 101,-339 483,-331 724,-397l533 -100c-8,12 -24,13 -28,33l-50 63c-5,8 -15,20 -19,29 -47,94 -19,-56 -35,180 231,-57 -2,20 131,-50 162,-86 90,-100 368,-211 -78,-254 -99,-4 -95,-265 68,-27 190,-97 261,-135 205,-111 120,-59 218,-298 -131,56 -134,51 -271,141 55,-221 137,-194 149,-347 -165,-24 -292,102 -381,148 43,-214 172,-137 347,-218 190,-88 193,-187 383,-308 1,-160 -28,-21 149,-28 3,-4 351,-559 276,-733l-479 235c-177,61 -418,110 -597,148 -471,100 -740,258 -859,630 -789,-119 -680,427 -1158,651z"/>
   <path class="fil0" d="M9881 15921l623 0c213,-886 -675,-189 -30,-1292 303,-517 -96,-957 628,-1319 316,-158 568,-321 882,-465 -105,-181 -34,-76 -179,-193 -95,-77 -102,-78 -198,-183 -272,-13 -171,-19 -301,-269l-1345 648c-306,279 241,-104 -60,40l-135 49c122,387 27,211 213,714 109,-139 5,-54 -17,-149 -8,-34 -22,-72 -20,-114 10,-181 -53,-2 36,-122 355,-23 174,-81 239,185 48,195 -1,164 104,281 -143,-188 -140,44 -146,50 75,137 149,248 112,372 -40,134 -99,79 -256,49 -80,-15 -48,-21 -151,-23 -8,15 -18,23 -19,49 -3,114 -90,104 64,168l-151 70c-40,22 -123,78 -173,111 57,62 12,70 148,107 -76,61 -25,2 -111,104l-79 182c-47,383 -18,19 -85,303 116,43 345,92 481,31 192,-87 -38,193 74,-81 19,270 -5,12 55,181 70,198 68,-106 -39,131 -3,7 -14,23 -15,36l186 88c134,67 5,17 112,62 0,-1 125,-32 -193,-125 -156,-45 -338,-25 -503,-25l226 263c7,14 17,-51 23,85z"/>
   <path class="fil8" d="M6410 15921l566 0c0,-11 -7,-27 -8,-33 -1,-6 -6,-25 -7,-32 -1,-7 -5,-23 -6,-30l8 -218c0,-7 -1,-23 -1,-30 0,-6 -3,-21 -3,-27l18 -258c22,-117 37,-142 49,-293 -105,62 -154,83 -153,212 70,-319 55,-341 -117,-435 120,-191 -33,-377 41,-705 3,-13 16,-47 18,-59 1,-7 3,-21 3,-28 2,-170 3,27 -18,-88 -50,-271 66,-217 31,-433 -30,-182 -22,-49 -27,-63l-175 -581c-24,-132 -21,-369 -38,-430 -136,-471 32,-245 73,-793 1,-15 7,-21 14,-28 -4,-43 -141,-93 149,-88 -141,-51 -92,0 -148,-160l62 -75c4,-3 18,-12 21,-14 191,-123 -22,-51 66,-8 -115,-144 -248,92 -98,-268 -104,65 -45,135 -232,151 29,-181 104,-218 118,-268 -135,60 78,173 -231,19 -26,-124 36,-351 29,-557l-53 -430c11,4 22,17 27,20 152,79 147,21 177,-87 -122,-73 -320,43 -372,-279 -19,-116 -29,-31 7,-107 106,57 52,146 199,211 8,-13 16,-31 21,-43 4,-12 14,-29 19,-44 3,-11 86,-136 -43,-343 -25,-41 -2,13 -80,-92 -226,56 -319,-15 -552,-44 34,43 -109,83 377,132 -92,66 -19,-14 -59,113 0,1 -22,138 -24,150 -144,23 -123,-35 -214,79 -89,110 -81,177 -96,328 173,-60 37,-38 160,-40 114,-1 48,-4 110,33 -162,34 -137,-13 -319,397 -113,254 -91,215 50,385 117,-188 60,-194 104,-382l200 -93c72,124 9,17 32,149 362,72 -250,19 77,-12l42 -4c23,3 42,22 46,35 3,11 -29,929 -103,1131 231,-34 108,-51 231,-88 -53,60 -63,171 -108,267 118,29 -39,-75 -98,-80 -124,133 -132,194 -40,461l118 220 -200 -7c8,10 16,27 20,33 86,103 63,98 242,59l134 853 -167 202c121,80 -35,15 143,51 25,5 83,-2 104,22l-275 31 221 181c207,244 114,84 133,76l-51 49c-141,135 -125,81 -172,200 -24,61 -9,37 -20,99l-16 176c22,264 81,150 6,354 -73,200 -207,271 -102,155 -3,793 -163,22 75,622l65 328c10,60 17,133 21,194z"/>
   <path class="fil4" d="M12296 9219c75,174 -273,729 -276,733 -101,270 -54,49 -191,328l-704 1562c14,7 41,-8 48,8l115 1c60,17 -25,-106 11,27l14 68c2,9 3,31 11,44 14,-11 110,-18 130,-179l60 173c5,98 -10,63 -10,73 6,120 71,236 213,205 139,-30 530,-1105 614,-1269 117,-227 274,-422 305,-621 -17,169 -361,756 -453,951 -149,314 -93,344 -344,800l-18 305c171,-68 45,23 142,-104 84,-111 26,-39 73,-187l811 -1667c66,-122 122,-218 184,-310 12,-17 275,-396 84,-256 173,-6 175,50 242,100l51 -224 -383 -2 126 -418 -205 -10c-167,11 -126,150 -509,-321 -111,120 -71,63 -140,192z"/>
   <path class="fil9" d="M12043 7400c-28,41 -30,50 -59,84 -52,59 -21,24 -72,69 -55,48 -65,36 -134,112l246 68c400,-39 786,-28 850,-370l13 112c3,6 9,20 13,25l79 59c4,-10 23,12 36,16 -15,-39 23,-207 141,-279 40,-24 41,-15 84,-19 267,-27 0,-91 422,-155 -92,344 69,82 -229,275l-130 111c-328,286 -77,-140 -372,506 199,140 79,107 383,97 388,-264 206,-102 439,-198 164,-68 135,-139 317,-283 111,-88 171,-126 337,-120 -99,116 -83,74 -200,167 -100,79 -76,79 -173,158l-206 145c-77,65 -81,75 -151,184 70,184 -36,-19 130,146 8,7 19,18 26,25 0,0 75,83 77,85 153,-64 274,-150 451,-168 -62,193 -94,112 -108,313 193,-111 197,-52 311,-219 -104,-18 -60,26 -91,-72 295,-258 37,115 233,-115 5,-6 12,-20 17,-27l39 -61c204,-263 401,-187 541,82 98,-90 123,-100 331,-88l256 103c95,-45 151,-84 294,-129 -94,73 -170,86 -252,212 -69,108 -87,214 -70,359 224,125 -264,-30 137,-4 5,0 23,-1 32,4 67,255 -36,389 230,449l46 -171c75,-18 330,-46 341,-48 69,-11 -54,-79 246,-1l49 -108 0 -113c-195,36 -224,106 -396,63l-410 -71c-76,-204 156,-357 359,-398 -234,-282 -273,-165 -835,-307 -430,-109 -827,-324 -1173,-433 -453,-143 107,145 -765,-320 -182,-97 -186,-146 -333,-223 -432,104 202,-80 -262,-56 -380,20 -679,307 -1085,527z"/>
   <path class="fil9" d="M6560 354c104,-201 34,-208 286,-271 35,78 70,-60 -49,256l382 -165c-70,356 -429,246 -619,180zm-1441 1000c60,115 31,39 36,192 397,-128 131,-185 550,-97 -141,-169 -89,-89 -53,-153 84,70 187,191 149,301 -215,146 -98,29 -301,29 -262,0 -89,26 -296,104l-9 163c358,-98 354,-137 630,91 160,-71 16,-4 195,-214 70,210 15,46 104,150 6,8 19,19 25,26 6,7 20,20 25,25 5,5 18,16 25,26l209 -303c-63,-78 -19,-25 -78,-74 -8,-6 -23,-18 -31,-25l130 -214c214,-163 130,-24 204,-278 -375,24 -162,82 -343,94l-18 -199c-181,65 -273,196 -383,274 -155,-58 -204,-94 -242,-274 84,-86 53,-53 141,-111 282,-182 340,-301 567,-143 -219,-13 -150,-40 -307,45 83,81 1,94 318,42l83 -124 206 71c348,87 59,-17 264,132 177,-62 224,-70 262,-278 270,36 221,23 482,10 -4,90 -27,199 -19,262 20,166 -145,59 100,144 -158,52 -163,60 -188,188 64,30 85,36 126,66 137,101 43,23 99,98l159 22c76,-168 99,-92 170,-212 168,-282 -26,-43 211,-171l-200 -116 438 20c-86,-216 23,-75 -240,-178 -362,-143 -420,-397 -634,-561 -182,-140 -293,-30 -655,-150 -93,-31 -613,-95 -737,-15 -4,3 -17,11 -21,14l-323 162c-282,134 -384,560 -568,811 -178,241 -186,72 -261,328z"/>
   <path class="fil10" d="M13312 8109c-20,48 11,162 -236,165l-193 -28c-1,0 -112,-6 -125,-7 -267,-18 -301,-18 -497,-127 112,-82 131,-31 275,-107 27,-14 106,-76 122,-96 92,-115 27,16 103,-192 -448,-4 -634,118 -1090,31 87,142 111,133 251,256l341 388c121,-56 177,-63 346,-39 928,130 -3,-2 737,234 115,37 -3,-18 134,61 205,118 3,11 462,108 150,32 25,-20 415,-73 10,12 17,32 22,41 102,174 76,128 143,150 165,57 218,14 368,49 -50,155 -97,238 -342,289 -668,140 -246,-230 -749,-163 -265,35 -268,5 -514,-41 82,141 82,103 89,126 228,211 981,303 1321,381 262,60 1228,285 1396,174 -140,-3 -176,5 -289,-78 -194,-141 -107,-48 -153,-291 -55,-290 -8,-478 74,-751 -353,-33 -618,-104 -1078,-103l-81 -124c-114,167 -118,108 -311,219 14,-201 47,-120 108,-313 -177,18 -298,105 -451,168 -2,-2 -76,-84 -77,-85 -7,-7 -19,-18 -26,-25 -166,-165 -60,39 -130,-146 70,-109 74,-119 151,-184l206 -145c96,-79 73,-79 173,-158 117,-93 102,-51 200,-167 -166,-6 -226,32 -337,120 -182,144 -153,215 -317,283 -234,96 -51,-65 -439,198z"/>
   <path class="fil11" d="M10875 12190l-145 73c-11,5 -24,10 -36,15 -290,134 -652,399 -963,482l-25 -71c-102,-242 20,-48 -392,-124 135,-240 -3,-39 123,-116 96,-59 205,31 95,-134 -73,65 -10,40 -146,49 -208,13 -1,27 -212,-31 81,331 -57,208 48,842 99,597 61,2087 61,2746l597 0c-6,-136 -16,-71 -23,-85l-226 -263c165,0 347,-21 503,25 319,92 193,124 193,125 -107,-46 21,5 -112,-62l-186 -88c1,-13 12,-30 15,-36 107,-237 109,67 39,-131 -60,-168 -36,89 -55,-181 -112,274 117,-6 -74,81 -135,62 -364,12 -481,-31 66,-284 38,80 85,-303l79 -182c86,-102 35,-43 111,-104 -136,-37 -91,-45 -148,-107 50,-32 133,-88 173,-111l151 -70c-155,-64 -68,-54 -64,-168 1,-26 10,-34 19,-49 103,2 71,8 151,23 157,30 217,86 256,-49 37,-124 -37,-235 -112,-372 6,-6 3,-238 146,-50 -104,-117 -56,-86 -104,-281 -65,-266 116,-208 -239,-185 -90,120 -27,-59 -36,122 -2,42 12,80 20,114 22,95 126,10 17,149 -186,-503 -91,-327 -213,-714l135 -49c301,-143 -246,239 60,-40l1345 -648c129,250 28,256 301,269 -197,-134 -298,-348 -533,-488l-104 118c-74,79 -34,43 -95,92z"/>
   <path class="fil2" d="M2801 5790c7,729 -197,684 -193,999 5,394 31,389 -188,964 -89,234 -265,495 -334,906 -61,360 -131,253 -167,444 -27,145 110,110 -277,329 89,-4 44,-26 133,32 187,123 -33,254 -39,273 -20,66 157,-92 -72,195 -87,109 -111,93 -160,268l58 1c8,-1 46,-4 57,-5 102,-6 4,-55 140,4 -245,261 -62,140 -141,358 -99,276 -128,98 -275,925 -33,187 -98,219 -246,309l-1 167c179,16 188,-14 303,-143 100,-113 106,-160 156,-299 117,-331 172,-381 150,-770 73,-186 9,45 97,-124l127 -439c30,-356 53,-138 -83,-203 94,-26 54,-9 122,-121 20,-33 -9,-137 362,-180 188,-78 6,-41 123,-289 124,-265 132,-45 171,-231 29,-140 8,-244 46,-388l136 -1114c80,-392 18,-607 184,-791 21,-364 -67,-531 33,-889 86,-77 18,3 6,-51l-74 -432 -153 295z"/>
   <path class="fil2" d="M6156 6070c90,59 -11,14 119,13 14,0 129,-15 166,-11 -138,245 25,1 -182,209l-106 101 127 91c84,65 60,-21 79,79 -134,-148 -139,-41 -224,51 86,74 49,23 158,63 32,12 44,-4 105,48 -111,125 -37,128 25,275 -333,-62 -363,116 -676,106 -98,17 -370,98 -515,128 -592,124 -431,43 -522,241 202,120 529,39 792,-34 50,77 3,11 43,142 158,-98 52,-60 294,-60l62 246c-163,7 -89,4 -210,43 -451,147 -983,155 -1136,200 -91,27 -32,20 -159,61 82,183 -13,228 113,394 336,-96 -22,34 147,54 86,-127 44,-146 275,-174 -139,195 -69,-29 -108,168 227,71 107,69 249,-63 -104,181 -104,91 -200,218l-214 285c261,-100 588,-145 914,-152 155,-140 -8,64 379,-221l168 -112c-146,-147 -114,-144 -280,-193 -19,-108 39,-42 12,-147 -37,-146 -38,-16 -115,-186l348 -37c145,-36 20,-81 282,-67 -1,-10 26,-594 84,-622 -200,-101 -181,36 -191,-147 170,-93 186,-5 382,8 61,561 40,174 -76,365 -155,254 71,100 -70,284 40,-23 69,-141 67,-252 62,-44 24,-29 129,-40l-97 -1452c-138,-87 62,-19 -66,-3l-375 100z"/>
   <path class="fil6" d="M2954 5496l74 432c12,54 81,-26 -6,51 -100,358 -13,525 -33,889 -45,242 -101,558 -56,788l233 21c114,-428 344,-835 337,-1245l187 116c66,-80 283,-1065 403,-1345 184,-428 468,-762 769,-1004 -214,-121 -210,458 -1273,505 -26,143 -1,171 -72,277 -108,161 -451,217 -563,516z"/>
   <path class="fil9" d="M6910 6774l156 -256c-1,-138 -9,-83 -22,-250 -26,-327 -91,-334 -15,-552 58,-167 60,-61 44,-173 -30,-209 -98,-289 -22,-510l241 -456c83,53 40,19 111,96l86 112c-42,108 -156,94 -85,193 72,100 153,64 233,102 -91,155 -90,236 -161,377 58,-29 163,3 250,84 121,114 -8,157 145,136 167,-139 130,-343 315,-398 -151,-28 -284,-53 -486,-69 44,-102 33,-179 84,-262 105,-173 23,28 159,-159 213,-293 -61,-264 270,-281 -134,-69 -82,-75 -124,-152 203,-11 154,-38 212,-89 112,288 -101,134 296,298 66,-74 51,-94 143,-202 302,117 458,-1 555,255 49,131 -22,170 34,324l43 152c102,-89 37,-14 106,-137 10,-17 56,-142 65,-165l639 114c14,-106 47,-98 -44,-77 -145,-22 -461,-97 -606,-135 30,-251 -25,-79 77,-193 193,-215 -32,99 110,-102 -392,-24 -828,-232 -851,-245l-102 -35c-159,-23 -742,-204 -833,-317 -152,42 -267,-23 -397,-110 -33,-22 -40,27 -62,-47 -5,-17 -20,-17 -31,-24 -173,353 -137,73 -344,558 -292,684 -121,2317 -187,2597z"/>
   <path class="fil6" d="M3337 15921l281 0c-67,-155 -53,-225 -14,-431l51 -17c59,-126 -100,-119 119,-94 -168,-252 71,-9 -75,-439 -79,-232 -119,-14 -154,-240 27,-25 24,-12 62,-34 284,-158 191,-75 169,-512 -11,-232 8,-379 -64,-668l213 -41c-13,-20 -90,-16 -163,-182 236,18 163,37 334,-17l-275 -126 159 -406c5,-10 19,-40 25,-50l27 -46c206,-342 88,-220 -22,-285 -145,79 -148,18 -297,102 90,-194 249,-229 453,-336 64,-90 13,-116 -6,-152 -81,4 -180,-2 -247,-1l-307 35c-424,115 94,155 -473,221 5,31 44,230 46,235 81,189 -18,38 183,150 -88,139 -100,679 -88,831 17,226 -26,139 -104,533 -53,270 105,-195 -27,85l-37 61c-4,7 -17,20 -22,32l74 14c150,9 35,-51 115,-14l-36 555c-3,104 -4,194 58,247 96,81 -3,101 135,-105 3,117 9,62 -14,176l-84 406c-64,355 -54,219 5,513z"/>
   <path class="fil1" d="M4166 12100c-204,107 -362,142 -453,336 149,-84 152,-23 297,-102 14,-11 32,-21 45,-28 183,-108 337,-213 552,-255 -87,300 -147,274 -333,489 102,139 63,145 272,166 -89,54 -51,-4 -68,90 -37,203 -22,19 30,92 95,-45 121,-36 204,-97 81,-59 71,-82 153,-152 16,291 46,380 -195,458l90 174c51,155 6,126 -2,163l-84 219c-110,139 -206,-69 -135,266 54,253 -36,6 213,113 -64,233 -147,74 -139,435 6,286 -135,308 -198,539l-42 163c-9,60 159,105 -200,240 48,-3 90,-9 138,1 110,23 60,21 116,65 -55,498 -134,245 -219,448l779 0 171 -1045 -167 -85c-73,-32 -122,-49 -173,-72 55,-137 -5,-227 217,-410 -115,-95 20,-69 -150,-43l-119 100c92,-332 149,-157 232,-400 112,-328 -64,-379 -101,-499 -55,-178 110,-595 90,-1054 -17,5 -36,15 -49,20l-201 68c49,-3 112,98 110,-168 -2,-201 11,-12 -104,-193l179 -249c157,-334 -141,-321 -334,-354 -72,39 -166,87 -204,172l236 126c-11,10 -47,47 -59,58 -157,146 -183,134 -392,205z"/>
   <path class="fil12" d="M4011 12334c110,65 227,-57 22,285l-27 46c-6,10 -20,40 -25,50l-159 406 275 126c43,166 -21,-5 110,143 91,103 111,206 63,368 -37,125 0,5 -37,78 -2,5 -10,16 -12,21 -235,445 -18,198 -175,512 -22,44 -49,81 -51,85l15 113c3,7 15,24 18,30 3,6 15,19 20,30 -22,5 -107,34 -108,34 -6,5 -22,14 -28,20l-29 51c-25,178 159,88 181,45 77,291 -22,176 -44,274 -28,122 -101,-99 1,154 42,105 58,80 110,70 -274,172 71,155 -474,198l-51 17 349 67c10,3 28,10 42,16 -3,303 -16,122 -84,348l295 0c85,-203 164,50 219,-448 -56,-44 -5,-41 -116,-65 -48,-10 -90,-4 -138,-1 359,-134 191,-180 200,-240l42 -163c63,-230 204,-253 198,-539 -7,-361 75,-203 139,-435 -248,-106 -159,140 -213,-113 -71,-336 25,-128 135,-266l84 -219c8,-37 53,-7 2,-163l-90 -174c242,-78 212,-167 195,-458 -82,70 -72,93 -153,152 -82,60 -109,52 -204,97 -52,-73 -67,111 -30,-92 17,-93 -21,-35 68,-90 -210,-22 -170,-27 -272,-166 186,-215 246,-189 333,-489 -214,42 -369,147 -552,255 -13,7 -31,18 -45,28z"/>
   <path class="fil0" d="M8638 1772l-50 -149c-88,202 98,-17 -150,121 -91,-178 -152,-58 -181,-248 -10,-62 118,35 -30,-82 -97,-77 -31,-37 -190,-98l175 205 -194 -41c-416,-50 -167,20 -238,-81 -56,-75 37,3 -99,-98 -41,-30 -62,-36 -126,-66 -62,-18 -74,-23 -112,-42 -33,-16 -17,100 -64,-40 -5,-15 -20,-16 -30,-23 7,139 -26,184 78,262 106,80 111,-62 193,152 -372,-95 -222,-91 -476,-206 -10,10 -17,28 -21,36l-97 234c-3,159 29,71 41,169 1,4 -1,18 0,23l10 56c60,216 218,593 -68,832 133,95 149,14 173,244 12,114 -7,270 -33,355 119,8 6,15 42,-37 5,-7 31,-37 34,-59 3,-18 11,-25 17,-35l103 223 590 -218c15,-6 40,-1 51,-25 12,-25 36,-17 53,-28 -12,-8 -28,-18 -36,-23l-197 -163c-155,-126 -185,-120 -243,-315 88,78 39,60 154,149 289,221 219,161 292,127l68 -58c92,-44 -126,-134 195,29 32,-186 -6,-72 58,-159 110,-149 33,-23 59,-8l-64 -90c-7,-8 -18,-21 -24,-29 -58,-68 14,4 -83,-82 -80,64 -47,-43 -91,176 -202,-431 -281,-108 -280,-769 110,-20 97,4 206,99 -86,-319 25,-283 288,-348 13,8 29,18 38,24l72 48c400,297 -82,-183 139,127 -180,-177 33,-62 51,-72z"/>
   <path class="fil10" d="M12019 9952c-177,7 -148,-132 -149,28 -190,120 -193,220 -383,308 -174,80 -303,4 -347,218 90,-46 217,-172 381,-148 -12,152 -93,125 -149,347 137,-90 140,-85 271,-141 -98,239 -13,187 -218,298 -71,38 -193,108 -261,135 -5,261 17,11 95,265 -278,112 -207,126 -368,211 -133,70 100,-7 -131,50l402 -58c-66,191 -561,372 -747,442 -178,67 -56,-57 -194,183 293,-62 406,-4 605,-144 1,2 -51,37 22,197 6,13 15,35 28,48 61,-50 21,-14 95,-92l104 -118c236,140 336,355 533,488 96,105 103,106 198,183 145,118 74,12 179,193 88,-112 542,-1184 654,-1426 234,-505 484,-971 717,-1417 -66,-50 -68,-106 -242,-100 191,-140 -72,238 -84,256 -62,92 -119,188 -184,310l-811 1667c-47,147 11,76 -73,187 -97,126 29,36 -142,104l18 -305c251,-455 196,-486 344,-800 92,-194 436,-782 453,-951 -30,199 -187,394 -305,621 -85,164 -475,1239 -614,1269 -142,31 -207,-85 -213,-205 0,-10 14,26 10,-73l-60 -173c-20,161 -117,168 -130,179 -7,-13 -9,-36 -11,-44l-14 -68c-36,-133 49,-10 -11,-27l-115 -1c-7,-17 -34,-1 -48,-8l704 -1562c137,-279 89,-58 191,-328z"/>
   <path class="fil1" d="M16943 8731l-49 108c-300,-79 -177,-10 -246,1 -10,2 -265,30 -341,48l-46 171c275,-55 -35,13 158,-16 158,-24 -10,28 194,-47l20 130c370,-86 382,-168 497,-280 381,-372 999,-379 1354,-536 190,-84 154,-24 173,-198 -192,-111 -306,193 -526,50 674,-268 766,-181 684,-477 -134,138 -803,332 -990,383l113 -102c35,-31 68,-64 109,-93 88,-62 143,-78 257,-140 234,-128 442,-159 326,-410l-522 263c-537,260 -681,270 -1124,474 -216,99 -325,255 -369,519l408 -2c-39,173 24,26 -33,109 -4,5 -19,24 -22,30 -3,4 -18,9 -26,16z"/>
   <path class="fil9" d="M5742 5399c340,-256 157,-288 445,-486 232,-160 124,-95 335,-313 7,-7 17,-18 24,-25l95 -94c-31,46 -108,58 -53,294 27,115 8,63 60,133l88 -276c107,-161 -62,-60 62,-42 186,-448 -15,-213 348,-712 9,-12 38,-51 47,-62l52 -65c-187,-61 -332,-87 -391,-243 -83,-220 79,71 -7,-86 -349,28 -295,139 -644,-48 56,201 40,195 -55,306 -181,212 -574,28 -468,227 1,3 13,14 16,16 3,2 19,9 24,10 170,43 112,-25 132,-48l-50 149c-204,0 -221,-3 -356,83 -137,87 -110,100 -291,166l99 72c372,141 -254,47 676,-163 309,-70 629,-37 916,-102l-185 227c-95,87 -31,72 -117,57 -100,-17 -66,-120 -96,-160l-348 2c-47,155 -66,-96 26,55 144,236 -25,-183 -103,442 -87,694 -633,129 -573,611 33,261 209,140 255,-46 109,77 32,-40 38,121z"/>
   <path class="fil2" d="M11511 6848c327,-46 566,68 824,2 230,-60 84,-75 290,-64 129,7 237,14 372,12 -125,-129 -114,-76 -291,-105 -291,-47 -104,-1 -298,-108 -492,-270 -111,-112 -682,-519 -401,-286 27,-39 -499,-293l-270 -210c-156,-95 -472,-53 -671,-28 -121,133 28,151 121,185 265,95 97,36 363,-18 -19,303 -52,108 -58,287 482,45 393,28 461,232 -213,78 -300,-111 -540,63 259,92 -80,140 276,309 147,70 76,31 214,74 -76,-113 -50,-13 -41,113 443,-20 369,14 429,68z"/>
   <path class="fil10" d="M6365 832c119,106 129,62 191,166 -25,40 90,75 -129,59 -55,-4 -106,-36 -155,-59l18 199c181,-12 -32,-70 343,-94 -74,255 10,115 -204,278l-130 214c8,7 23,18 31,25 60,49 15,-4 78,74l-209 303c-7,-10 -20,-20 -25,-26 -5,-5 -19,-19 -25,-25 -6,-7 -18,-18 -25,-26 -90,-104 -35,60 -104,-150 -180,209 -35,142 -195,214l204 61c353,122 93,140 309,128 3,0 231,-73 258,-80 -37,355 -25,60 30,179l99 119c-66,56 -130,155 -129,169 4,-78 -15,-92 85,-148 303,-170 153,-121 251,-198 -12,220 -24,112 -50,253 -70,380 27,328 -157,470 194,106 115,38 120,331l225 -32c0,-1 -191,-322 -152,-615 57,-427 100,-330 67,-771 -119,58 -107,-49 -91,111 -43,-242 -103,-147 -18,-442l55 -199c42,-78 98,-63 171,-80 418,-97 -331,271 140,-42 -46,-214 -67,-116 -86,-307 229,40 182,53 191,241 10,7 25,8 30,23 46,139 31,24 64,40 38,19 51,24 112,42 24,-128 30,-136 188,-188 -245,-85 -79,22 -100,-144 -8,-63 15,-172 19,-262 -262,13 -213,26 -482,-10 -38,208 -85,217 -262,278 -205,-149 84,-45 -264,-132l-206 -71 -83 124z"/>
   <path class="fil9" d="M2932 7656c-135,201 -58,760 -41,1038 25,422 -13,684 -25,1086 108,-127 118,-206 200,-327 419,-616 254,-291 241,-1243 -2,-178 -4,-298 61,-447 86,-198 296,-934 322,-1216l-187 -116c7,410 -223,816 -337,1245l-233 -21z"/>
   <path class="fil2" d="M5742 5399c-227,333 -411,258 -521,657l-110 160c-8,5 -21,13 -29,18l-65 33c-73,38 -136,70 -211,104 139,147 -216,209 263,97 22,-5 176,-101 198,-116 379,-237 339,-84 408,-257 6,-10 18,-22 22,-27l100 -97c54,-58 11,-9 66,-82 155,-205 -110,132 40,-60 343,-438 367,-38 783,-682l109 -558c-125,-18 45,-118 -62,42l-88 276c-52,-70 -33,-19 -60,-133 -55,-235 22,-247 53,-294l-95 94c-7,7 -17,18 -24,25 -210,218 -102,154 -335,313 -288,198 -105,230 -445,486z"/>
   <path class="fil10" d="M1095 11960l-84 23c166,9 465,66 585,-41 5,-5 15,-16 20,-22l292 60c173,-304 65,-364 215,-583 77,-112 181,-127 86,-343 -68,-157 -208,-133 -43,-491 22,-47 1,11 38,-75 117,-274 8,-120 -64,-270l192 -117c-77,-130 13,-72 -161,-149 38,-29 3,-11 90,-53 187,-88 -35,33 91,-37l-25 -182c-371,43 -342,147 -362,180 -68,112 -28,95 -122,121 135,64 113,-153 83,203l-127 439c-89,169 -25,-62 -97,124 22,389 -32,439 -150,770 -49,139 -56,186 -156,299 -114,129 -123,159 -303,143z"/>
   <path class="fil12" d="M7066 6518c197,-109 324,-224 467,-353l336 -490c-153,22 -24,-22 -145,-136 -87,-82 -192,-113 -250,-84 70,-141 70,-222 161,-377 -80,-38 -161,-2 -233,-102 -71,-99 42,-85 85,-193l-86 -112c-71,-77 -28,-43 -111,-96l-241 456c-76,221 -8,302 22,510 16,113 14,6 -44,173 -76,219 -11,225 15,552 13,167 21,112 22,250z"/>
   <path class="fil8" d="M5575 8793c248,5 482,-67 727,-58 131,5 232,40 331,22 130,-24 12,-95 290,-51 13,-228 -67,-79 -78,-291 -148,-11 -193,-13 -307,-95 0,0 -309,-111 -32,-311 287,-207 55,91 -3,-119 125,-149 93,-99 235,-167l-45 -298c-106,11 -67,-4 -129,40 2,111 -27,229 -67,252 141,-184 -85,-31 70,-284 117,-191 137,196 76,-365 -195,-13 -212,-102 -382,-8 10,183 -9,46 191,147 -57,28 -85,612 -84,622 -262,-13 -137,32 -282,67l-348 37c77,171 78,41 115,186 27,105 -31,39 -12,147 166,50 135,46 280,193l-168 112c-387,285 -224,81 -379,221z"/>
   <path class="fil8" d="M11511 6848c-60,-54 14,-88 -429,-68 -9,-126 -34,-226 41,-113 -137,-43 -67,-4 -214,-74 -356,-169 -18,-217 -276,-309 239,-173 327,15 540,-63 -68,-204 21,-187 -461,-232 5,-180 38,15 58,-287 -266,54 -98,113 -363,18 -93,-33 -241,-52 -121,-185 -52,-105 -49,-27 -8,-99 282,-64 159,10 288,10 413,-1 91,70 259,-116 -402,-81 -810,-54 -1243,-54 149,250 326,414 617,459 -166,181 -163,-55 -117,189 22,117 14,97 148,111 285,29 31,-194 286,-20 -105,8 -74,-4 -166,33 -100,40 -53,26 -111,74 66,196 -12,10 56,124l433 417c95,59 68,34 175,82 246,109 281,116 609,103z"/>
   <path class="fil5" d="M3655 15474c546,-43 201,-26 474,-198 -52,10 -68,34 -110,-70 -102,-253 -28,-32 -1,-154 22,-98 121,17 44,-274 -22,44 -206,133 -181,-45l29 -51c5,-6 22,-15 28,-20 1,-1 86,-29 108,-34 -5,-11 -17,-24 -20,-30 -3,-6 -15,-23 -18,-30l-15 -113c1,-5 28,-41 51,-85 157,-315 -61,-68 175,-512 2,-5 10,-16 12,-21 37,-73 0,47 37,-78 48,-162 29,-265 -63,-368 -130,-147 -67,24 -110,-143 -171,53 -98,35 -334,17 72,166 150,162 163,182l-213 41c72,289 53,436 64,668 21,437 115,354 -169,512 -38,21 -36,9 -62,34 35,225 75,8 154,240 146,430 -92,187 75,439 -219,-25 -60,-32 -119,94z"/>
   <path class="fil10" d="M884 12827c-160,273 154,173 -55,795 -3,-6 -5,-17 -6,-19 -1,-2 -6,-17 -7,-19 -278,-510 -25,-97 -187,-483l-161 764c78,194 118,136 313,264 172,112 201,145 395,194l70 -369c-2,-6 -79,-130 -94,-150 217,-117 173,-201 173,-469 -390,12 -229,-85 -301,162l-11 -373c166,25 205,-131 328,-342l80 176c55,-427 51,-112 -46,-261 -279,-96 -94,239 -490,130z"/>
   <path class="fil0" d="M15889 8166l-167 403c-81,273 -129,461 -74,751 46,243 -41,150 153,291 113,82 149,75 289,78l144 -97c411,-379 110,-346 399,-466l-20 -130c-204,75 -37,23 -194,47 -193,29 117,-39 -158,16 -266,-60 -163,-194 -230,-449 -10,-5 -27,-4 -32,-4 -401,-26 88,129 -137,4 -18,-146 1,-251 70,-359 81,-127 158,-139 252,-212 -143,45 -199,84 -294,129z"/>
   <path class="fil12" d="M11672 7748c456,87 642,-34 1090,-31 -76,207 -10,77 -103,192 -16,20 -95,82 -122,96 -144,76 -163,25 -275,107 196,109 229,109 497,127 13,1 123,7 125,7l193 28c247,-3 216,-117 236,-165 -304,10 -184,43 -383,-97 295,-646 44,-220 372,-506l130 -111c298,-193 137,68 229,-275 -421,64 -154,128 -422,155 -43,4 -44,-5 -84,19 -118,72 -156,240 -141,279 -12,-4 -32,-26 -36,-16l-79 -59c-4,-5 -10,-19 -13,-25l-13 -112c-64,342 -449,331 -850,370l-246 -68c69,-76 80,-63 134,-112 50,-44 20,-9 72,-69 30,-34 31,-43 59,-84l130 -173c92,-107 119,-107 157,-269 -454,121 -141,235 -494,468 -9,6 -22,13 -32,19 -9,6 -22,13 -30,19l-230 213 127 71z"/>
   <path class="fil9" d="M5748 7096c313,9 343,-168 676,-106 -62,-147 -136,-150 -25,-275 -61,-52 -72,-37 -105,-48 -109,-40 -72,12 -158,-63 84,-92 89,-199 224,-51 -20,-99 5,-14 -79,-79l-127 -91 106 -101c207,-207 44,36 182,-209 -37,-4 -152,11 -166,11 -130,0 -29,46 -119,-13 -221,55 -204,73 -255,350 122,47 60,147 199,1 -192,110 -74,209 -199,298 91,103 32,43 99,-100 -95,-69 171,-166 -246,-52 117,-45 85,-76 90,-101 2,-9 -16,-22 -16,-45 0,-28 -16,-35 -26,-51 -197,41 -375,135 -447,298 82,193 -13,113 430,298l-37 128z"/>
   <path class="fil6" d="M14563 8343l81 124c460,-1 725,70 1078,103l167 -403 -256 -103c-207,-12 -232,-2 -331,88 -140,-269 -337,-344 -541,-82l-39 61c-5,7 -12,21 -17,27 -195,229 62,-144 -233,115 31,98 -13,54 91,72z"/>
   <path class="fil3" d="M516 12803c-142,214 -187,93 -172,364 -55,-234 7,4 -123,-166 -104,-137 5,1 -74,-124 -47,-74 -26,-62 -84,-105 -175,194 50,168 228,447 89,140 105,461 177,645l161 -764c162,386 -90,-27 187,483 2,3 6,17 7,19 1,2 3,13 6,19 209,-623 -105,-522 55,-795 -47,-156 -21,-21 -11,-122 25,-259 72,-202 103,-224 -99,-147 139,-181 -147,-101 -199,112 -249,188 -313,423z"/>
   <path class="fil13" d="M4596 5155l19 954c63,8 127,-22 226,121 128,184 58,-45 16,42 49,-83 28,-119 30,-128 32,-188 -98,34 13,-52 159,-124 -116,98 74,-26 131,-86 27,65 46,-64 24,-163 -109,-471 255,-410 -205,-188 -24,-92 -52,-415l-82 -31c-389,-105 -379,-36 -544,9z"/>
   <path class="fil6" d="M4475 11198c156,29 57,54 110,-101 -12,-8 -34,-26 -41,-13l-228 -37c110,-112 179,-158 339,-97l-45 -103 -360 48 9 151c-167,18 -452,20 -559,164l-22 48c-231,424 -471,261 -513,584 180,-38 132,-64 303,-75 137,-9 352,-18 488,-18 -7,-14 -26,-47 -30,-38 -4,9 -22,-28 -27,-35 -72,-132 -218,53 103,-240 128,-117 248,-171 472,-238z"/>
   <path class="fil2" d="M8184 5276c36,-78 49,-122 96,-211 62,-119 15,-38 95,-148 99,-137 152,-206 220,-354 -397,-163 -184,-10 -296,-298 -58,51 -9,78 -212,89 43,77 -10,83 124,152 -330,17 -56,-12 -270,281 -136,187 -54,-15 -159,159 -51,83 -40,160 -84,262 201,16 335,40 486,69z"/>
   <path class="fil1" d="M7781 1400c71,100 -178,31 238,81l194 41 -175 -205c159,60 92,21 190,98 148,117 20,20 30,82 29,190 91,70 181,248 248,-138 62,81 150,-121 281,-301 148,-388 -30,-680l-438 -20 200 116c-237,128 -43,-111 -211,171 -71,120 -94,44 -170,212l-159 -22z"/>
   <path class="fil3" d="M4526 10324c-34,-87 60,-56 -138,-150 -85,-40 -156,-54 -255,-106 -412,-40 -99,-36 -222,132 149,67 187,97 397,100 -221,312 -156,121 -382,219l-313 159 3 214c101,34 216,104 429,-111l479 -458z"/>
   <path class="fil11" d="M6272 999c49,22 100,54 155,59 219,17 105,-19 129,-59 -62,-104 -72,-60 -191,-166 -317,52 -235,39 -318,-42 157,-85 88,-58 307,-45 -227,-157 -285,-39 -567,143 -89,58 -57,25 -141,111 38,180 87,216 242,274 110,-78 202,-209 383,-274z"/>
   <path class="fil5" d="M884 12827c396,109 212,-226 490,-130 98,149 101,-165 46,261 79,79 -63,73 92,65 24,-172 -24,-216 -67,-507 -147,-98 -416,-244 -617,-137 286,-80 48,-46 147,101 -30,21 -78,-36 -103,224 -10,101 -37,-33 11,122z"/>
   <path class="fil0" d="M5676 6095c118,-35 226,-75 329,-114 168,-64 195,-118 306,-195 330,-230 316,-160 378,-640 -416,644 -440,244 -783,682 -150,192 115,-145 -40,60 -55,73 -12,25 -66,82l-100 97c-5,5 -16,17 -22,27z"/>
   <path class="fil3" d="M4510 8457l11 544 140 -55 214 -285c95,-128 96,-37 200,-218 -142,132 -22,135 -249,63 39,-196 -32,27 108,-168 -231,28 -190,47 -275,174 -169,-21 189,-150 -147,-54z"/>
   <path class="fil10" d="M10134 4826c-79,-227 -163,-394 -419,-429 -142,201 83,-114 -110,102 -102,114 -47,-59 -77,193 145,37 461,113 606,135z"/>
   <path class="fil5" d="M3618 15921l293 0c68,-226 81,-45 84,-348 -14,-6 -33,-12 -42,-16l-349 -67c-39,206 -53,276 14,431z"/>
   <path class="fil4" d="M5119 1354c85,148 46,198 86,377 207,-78 34,-104 296,-104 203,0 86,117 301,-29 38,-110 -65,-232 -149,-301 -36,63 -88,-16 53,153 -419,-88 -154,-31 -550,97 -5,-153 24,-77 -36,-192z"/>
   <path class="fil0" d="M6560 354c190,66 549,176 619,-180l-382 165c120,-316 85,-177 49,-256 -252,63 -183,70 -286,271z"/>
  </g>
 </g>
</svg>
