<?xml version="1.0" encoding="UTF-8"?>
<!DOCTYPE svg PUBLIC "-//W3C//DTD SVG 1.1//EN" "http://www.w3.org/Graphics/SVG/1.1/DTD/svg11.dtd">
<!-- Creator: CorelDRAW X6 -->
<svg xmlns="http://www.w3.org/2000/svg" xml:space="preserve" width="274px" height="117px" version="1.1" style="shape-rendering:geometricPrecision; text-rendering:geometricPrecision; image-rendering:optimizeQuality; fill-rule:evenodd; clip-rule:evenodd"
viewBox="0 0 39265 16786"
 xmlns:xlink="http://www.w3.org/1999/xlink">
 <defs>
  <style type="text/css">
   <![CDATA[
    .str0 {stroke:#ED3237;stroke-width:572.841;stroke-linecap:round;stroke-linejoin:round}
    .fil0 {fill:none}
    .fil1 {fill:#ED3237}
    .fil2 {fill:#847059;fill-rule:nonzero}
    .fil3 {fill:#A45E4D;fill-rule:nonzero}
   ]]>
  </style>
 </defs>
 <g id="Camada_x0020_1">
  <metadata id="CorelCorpID_0Corel-Layer"/>
  <g id="_916466224">
   <path class="fil0 str0" d="M8828 16338c0,-1081 0,-2162 0,-3243 328,-797 955,-1102 1849,-970 166,-519 642,-785 1697,-576 367,-718 886,-899 1576,-485 0,-2223 0,-4446 0,-6669 647,-720 1293,-816 1940,0 0,3021 0,6042 0,9063 637,-374 1273,-748 1910,-1122 1057,-156 1418,338 1182,1394 -1041,829 -2081,1657 -3122,2486"/>
   <circle class="fil1" cx="15011" cy="2122" r="909"/>
   <path class="fil2" d="M9464 7442c0,339 -81,705 -250,1097 -165,393 -427,779 -786,1157 -356,381 -813,687 -1367,924 -556,235 -1204,353 -1943,353 -558,0 -1068,-52 -1527,-158 -457,-106 -875,-272 -1248,-497 -373,-223 -719,-519 -1033,-885 -279,-334 -519,-705 -717,-1117 -198,-413 -346,-855 -445,-1322 -99,-470 -148,-966 -148,-1493 0,-853 124,-1619 373,-2294 247,-677 605,-1256 1068,-1735 465,-480 1006,-845 1629,-1098 623,-250 1288,-376 1992,-376 860,0 1624,171 2296,514 670,341 1184,766 1542,1270 356,504 536,979 536,1428 0,247 -89,462 -262,653 -173,188 -383,282 -630,282 -274,0 -482,-67 -618,-195 -138,-131 -292,-356 -460,-675 -282,-527 -610,-920 -988,-1182 -381,-259 -845,-390 -1401,-390 -885,0 -1587,336 -2111,1006 -524,672 -786,1626 -786,2862 0,826 116,1513 349,2061 230,549 559,956 984,1228 425,269 922,405 1493,405 618,0 1139,-153 1567,-460 428,-306 749,-756 966,-1352 92,-279 205,-507 341,-685 134,-176 351,-265 650,-265 257,0 477,89 660,269 183,178 274,400 274,665zm1200 2331l0 -8571c0,-395 89,-695 265,-897 175,-203 413,-304 712,-304 297,0 539,101 722,302 183,200 274,499 274,900l0 8571c0,400 -94,699 -279,900 -185,200 -425,302 -717,302 -289,0 -524,-104 -704,-311 -181,-208 -272,-504 -272,-890zm13940 -1243c0,245 -74,509 -222,788 -146,279 -371,546 -672,798 -302,252 -682,457 -1142,611 -457,156 -974,232 -1550,232 -1221,0 -2175,-356 -2860,-1068 -687,-712 -1031,-1666 -1031,-2865 0,-811 158,-1528 472,-2150 314,-623 769,-1105 1362,-1443 596,-341 1305,-512 2130,-512 512,0 981,74 1409,225 425,151 789,343 1085,581 297,237 524,489 680,756 158,269 237,519 237,751 0,237 -89,438 -265,603 -178,163 -390,245 -642,245 -163,0 -299,-42 -408,-126 -109,-84 -230,-220 -366,-408 -242,-366 -494,-643 -756,-826 -265,-183 -598,-274 -1004,-274 -583,0 -1055,227 -1411,685 -359,455 -536,1078 -536,1869 0,371 47,712 138,1023 91,311 222,578 398,796 173,220 383,386 630,499 245,114 517,171 811,171 396,0 734,-91 1016,-274 284,-183 534,-465 751,-840 119,-222 250,-395 390,-519 138,-126 312,-190 514,-190 242,0 442,94 601,277 158,183 240,378 240,586zm5483 1540l-1745 -2862 -1073 1011 0 1570c0,381 -101,675 -302,880 -200,205 -430,306 -692,306 -304,0 -544,-101 -717,-304 -175,-203 -262,-502 -262,-897l0 -8426c0,-440 84,-774 255,-1004 168,-230 410,-343 724,-343 304,0 546,104 724,311 180,208 269,514 269,920l0 4790 2222 -2331c277,-292 487,-489 630,-596 146,-106 321,-158 529,-158 247,0 452,79 615,235 165,158 247,353 247,591 0,289 -269,675 -803,1159l-1051 962 2027 3186c151,237 257,418 321,541 67,124 99,240 99,351 0,314 -87,561 -257,742 -170,180 -398,272 -677,272 -242,0 -428,-64 -556,-195 -131,-131 -306,-366 -529,-709z"/>
   <path class="fil3" d="M21110 13467l0 1044 1593 0 0 -1044c0,-148 34,-260 101,-335 67,-75 155,-112 265,-112 110,0 200,37 269,110 69,74 103,186 103,337l0 2869c0,151 -35,263 -104,338 -69,75 -159,112 -268,112 -111,0 -200,-37 -266,-113 -66,-76 -99,-187 -99,-337l0 -1225 -1593 0 0 1225c0,151 -35,263 -104,338 -70,75 -160,112 -268,112 -111,0 -200,-37 -266,-113 -66,-76 -99,-187 -99,-337l0 -2869c0,-149 33,-260 98,-335 65,-75 154,-112 267,-112 110,0 200,37 269,110 69,74 103,187 103,337z"/>
   <path id="1" class="fil3" d="M24865 14413l0 1961c0,136 -32,238 -97,308 -64,70 -146,104 -245,104 -99,0 -180,-35 -242,-107 -62,-71 -93,-173 -93,-305l0 -1941c0,-135 31,-236 93,-304 62,-68 142,-102 242,-102 99,0 181,34 245,102 65,68 97,163 97,283zm-335 -701c-94,0 -175,-29 -242,-87 -67,-58 -100,-140 -100,-246 0,-95 34,-174 103,-236 69,-62 149,-93 239,-93 88,0 165,28 233,84 68,57 102,138 102,245 0,104 -33,186 -99,244 -66,59 -144,88 -236,88z"/>
   <path id="2" class="fil3" d="M27750 15900c0,187 -46,347 -137,480 -91,133 -226,234 -404,303 -178,69 -395,103 -650,103 -243,0 -452,-37 -626,-112 -174,-74 -302,-167 -385,-279 -82,-111 -124,-223 -124,-336 0,-75 26,-138 80,-191 53,-53 120,-80 201,-80 71,0 126,18 164,53 38,35 75,83 109,147 69,120 153,211 249,270 97,60 229,90 396,90 136,0 247,-30 333,-91 87,-60 131,-130 131,-208 0,-120 -45,-206 -135,-261 -91,-54 -239,-107 -446,-157 -233,-58 -423,-119 -570,-182 -146,-64 -263,-148 -351,-253 -87,-104 -132,-233 -132,-385 0,-137 41,-265 121,-386 81,-121 201,-217 360,-289 158,-72 349,-109 573,-109 176,0 333,18 472,54 140,37 257,86 350,147 94,62 165,130 214,204 49,75 74,147 74,219 0,77 -26,142 -79,191 -52,50 -126,75 -222,75 -70,0 -129,-19 -178,-59 -48,-40 -104,-99 -168,-179 -51,-66 -111,-120 -181,-159 -70,-40 -164,-59 -283,-59 -122,0 -224,26 -305,78 -81,53 -121,118 -121,196 0,71 30,130 89,175 60,46 140,84 241,114 101,30 240,66 417,109 210,51 383,113 516,184 133,71 234,155 303,253 69,97 103,207 103,332z"/>
   <path id="3" class="fil3" d="M28363 14089l75 0 0 -408c0,-110 3,-195 8,-257 6,-63 22,-116 48,-160 26,-47 64,-85 114,-114 49,-29 104,-43 166,-43 86,0 163,32 232,97 46,43 75,96 88,159 13,62 19,150 19,265l0 462 248 0c96,0 170,23 220,68 51,46 76,104 76,175 0,92 -37,155 -109,192 -72,37 -175,54 -310,54l-126 0 0 1247c0,106 3,188 11,245 8,57 27,103 59,139 33,36 86,53 159,53 39,0 93,-7 161,-21 68,-14 121,-21 159,-21 55,0 104,22 148,66 44,44 65,98 65,163 0,110 -59,193 -178,250 -120,59 -291,87 -515,87 -212,0 -372,-35 -481,-107 -109,-71 -181,-170 -214,-296 -34,-126 -51,-293 -51,-504l0 -1302 -89 0c-98,0 -173,-23 -224,-69 -52,-46 -77,-105 -77,-176 0,-70 27,-129 80,-175 54,-45 132,-68 235,-68z"/>
   <path id="4" class="fil3" d="M32666 15408c0,203 -31,388 -94,559 -64,171 -154,317 -274,439 -119,123 -262,216 -427,282 -165,65 -352,98 -559,98 -206,0 -391,-33 -555,-99 -164,-66 -306,-161 -426,-285 -120,-123 -211,-269 -273,-437 -62,-169 -93,-354 -93,-558 0,-205 31,-394 94,-564 64,-171 153,-316 271,-438 118,-121 260,-214 427,-279 167,-65 352,-98 555,-98 205,0 392,33 559,99 167,66 310,161 430,284 120,122 210,268 272,438 62,169 93,355 93,559zm-682 0c0,-277 -61,-491 -182,-646 -122,-153 -285,-231 -490,-231 -133,0 -249,34 -350,103 -101,69 -179,171 -233,305 -55,134 -82,291 -82,469 0,177 27,332 81,465 54,132 131,234 231,305 100,70 219,105 354,105 205,0 368,-77 490,-232 121,-154 182,-369 182,-642zm-595 -2352l336 0c85,0 127,13 127,37 0,13 -47,67 -139,161 -93,94 -187,184 -282,270 -94,86 -160,138 -197,156 -94,48 -196,72 -304,72 -71,0 -107,-20 -107,-62 0,-28 21,-77 64,-147l112 -208c65,-121 121,-198 170,-231 48,-33 121,-49 219,-49z"/>
   <path id="5" class="fil3" d="M33872 15807l0 567c0,137 -32,240 -97,309 -64,69 -146,103 -245,103 -98,0 -178,-35 -241,-104 -63,-69 -94,-172 -94,-308l0 -1889c0,-304 110,-457 330,-457 112,0 193,36 243,107 50,71 77,177 82,316 81,-139 164,-245 249,-316 86,-71 199,-107 342,-107 142,0 281,36 415,107 134,71 201,166 201,284 0,83 -28,151 -86,205 -57,54 -119,81 -185,81 -25,0 -85,-15 -180,-46 -96,-31 -180,-46 -253,-46 -99,0 -180,26 -243,78 -63,53 -112,130 -147,232 -35,103 -58,225 -72,366 -13,142 -20,314 -20,517z"/>
   <path id="6" class="fil3" d="M36106 14413l0 1961c0,136 -32,238 -97,308 -64,70 -146,104 -245,104 -99,0 -180,-35 -242,-107 -62,-71 -93,-173 -93,-305l0 -1941c0,-135 31,-236 93,-304 62,-68 142,-102 242,-102 99,0 181,34 245,102 65,68 97,163 97,283zm-335 -701c-94,0 -175,-29 -242,-87 -67,-58 -100,-140 -100,-246 0,-95 34,-174 103,-236 69,-62 149,-93 239,-93 88,0 165,28 233,84 68,57 102,138 102,245 0,104 -33,186 -99,244 -66,59 -144,88 -236,88z"/>
   <path id="7" class="fil3" d="M38523 16405c-164,127 -323,222 -476,286 -153,64 -326,95 -516,95 -174,0 -327,-35 -459,-103 -132,-69 -233,-161 -305,-279 -71,-118 -107,-245 -107,-383 0,-186 58,-343 176,-474 118,-131 280,-219 486,-264 42,-10 149,-32 320,-67 170,-35 317,-66 438,-96 121,-29 254,-64 396,-105 -8,-179 -44,-310 -108,-394 -65,-84 -196,-125 -397,-125 -172,0 -302,24 -389,72 -87,47 -162,120 -224,216 -62,96 -106,159 -132,190 -26,30 -81,46 -165,46 -76,0 -142,-25 -198,-74 -55,-48 -83,-111 -83,-187 0,-120 42,-236 126,-349 85,-113 216,-205 395,-278 179,-73 402,-109 669,-109 298,0 533,35 703,106 171,70 291,182 361,334 70,153 106,354 106,606 0,159 -1,294 -2,405 -1,111 -2,235 -3,371 0,127 21,260 64,399 42,137 63,226 63,266 0,69 -32,133 -98,190 -66,57 -140,86 -223,86 -70,0 -138,-32 -206,-98 -68,-65 -140,-159 -216,-283zm-45 -983c-99,37 -243,75 -433,115 -189,41 -321,71 -394,90 -73,20 -142,57 -209,112 -66,56 -99,133 -99,233 0,103 39,190 117,262 77,72 179,109 305,109 134,0 258,-30 371,-88 114,-59 197,-135 250,-228 61,-103 92,-272 92,-508l0 -97z"/>
   <path class="fil3" d="M34367 8881l0 78c114,-150 239,-260 373,-331 135,-70 290,-105 466,-105 170,0 322,37 457,112 134,74 234,178 301,314 43,79 70,164 83,256 12,91 19,208 19,350l0 1203c0,129 -30,227 -89,293 -59,66 -137,99 -231,99 -96,0 -175,-34 -235,-102 -60,-68 -90,-165 -90,-291l0 -1078c0,-213 -30,-376 -89,-489 -59,-112 -177,-169 -354,-169 -115,0 -220,34 -315,103 -94,69 -164,163 -208,284 -32,96 -48,276 -48,540l0 810c0,131 -31,229 -91,294 -61,65 -139,99 -234,99 -93,0 -170,-34 -229,-102 -60,-68 -90,-165 -90,-291l0 -1868c0,-123 27,-215 80,-276 54,-61 127,-91 220,-91 56,0 108,14 153,40 46,27 82,67 110,120 28,53 41,120 41,196z"/>
   <path id="1" class="fil3" d="M38345 10789c-157,121 -308,212 -453,272 -146,61 -311,90 -492,90 -166,0 -312,-33 -437,-99 -125,-65 -222,-154 -290,-266 -68,-112 -102,-234 -102,-365 0,-177 56,-327 168,-452 112,-125 267,-208 463,-251 40,-10 142,-31 305,-64 162,-33 302,-63 418,-91 115,-27 242,-61 377,-100 -8,-170 -42,-296 -103,-375 -61,-80 -187,-120 -378,-120 -164,0 -288,23 -370,69 -83,45 -154,114 -213,206 -59,91 -101,151 -125,181 -25,29 -78,44 -158,44 -73,0 -136,-23 -188,-70 -53,-46 -79,-106 -79,-179 0,-114 40,-225 121,-332 81,-108 206,-196 377,-265 171,-69 383,-104 638,-104 284,0 508,34 670,101 162,67 277,173 344,318 67,145 101,338 101,578 0,152 -1,280 -2,386 -1,106 -2,224 -3,353 0,121 20,248 61,380 40,131 60,216 60,254 0,66 -31,127 -93,181 -63,54 -133,82 -213,82 -66,0 -132,-31 -196,-93 -65,-62 -133,-152 -206,-270zm-43 -937c-95,35 -232,72 -413,110 -180,39 -305,68 -375,86 -70,19 -136,54 -199,107 -63,53 -94,127 -94,222 0,98 37,181 112,250 74,69 171,103 291,103 128,0 246,-28 353,-84 108,-57 187,-128 238,-217 58,-98 87,-259 87,-484l0 -92z"/>
  </g>
 </g>
</svg>
