<?xml version="1.0" encoding="UTF-8"?>
<!DOCTYPE svg PUBLIC "-//W3C//DTD SVG 1.1//EN" "http://www.w3.org/Graphics/SVG/1.1/DTD/svg11.dtd">
<!-- Creator: CorelDRAW X6 -->
<svg xmlns="http://www.w3.org/2000/svg" xml:space="preserve" width="86px" height="128px" version="1.1" style="shape-rendering:geometricPrecision; text-rendering:geometricPrecision; image-rendering:optimizeQuality; fill-rule:evenodd; clip-rule:evenodd"
viewBox="0 0 5126 7628"
 xmlns:xlink="http://www.w3.org/1999/xlink">
 <defs>
  <style type="text/css">
   <![CDATA[
    .fil0 {fill:#6F3B13}
   ]]>
  </style>
 </defs>
 <g id="Camada_x0020_1">
  <metadata id="CorelCorpID_0Corel-Layer"/>
  <path class="fil0" d="M1159 934l2809 0c0,132 -7,77 -14,123 -7,42 7,92 -6,130 -20,60 -3,74 -19,163 -6,31 -6,8 -13,41 -13,67 -16,128 -36,192l-52 153c-1,2 -1,4 -2,6l-10 28c-1,2 -2,4 -2,5l-106 213c-4,6 -5,8 -9,14l-138 188 -285 262c-17,14 -29,31 -45,46l-66 55c-5,5 -6,5 -11,11l-11 12c-3,3 -6,7 -11,12l-46 45c-17,17 -30,27 -45,46l-35 56c-14,23 -23,26 -34,57 -4,13 -7,23 -11,34l-31 105 0 175c0,24 6,5 14,39 4,18 4,29 6,39l59 123c26,49 47,59 74,100l39 44c10,10 2,3 12,11 2,2 9,7 13,10 40,27 74,67 112,93l124 111c8,8 15,16 23,23l75 62c18,17 30,27 47,45l160 212c1,1 2,3 3,4l32 51c12,22 19,38 31,60 7,14 8,17 15,31 7,13 8,15 15,30l74 184c1,2 2,4 2,5 1,2 2,4 2,5l46 189c10,71 27,123 30,198 1,15 -1,30 1,44 5,29 6,9 12,34 10,42 -5,90 5,132 7,32 13,3 13,33 0,25 14,83 -23,83l-463 0 0 -159c0,-27 -5,-5 -11,-27 -5,-18 -3,-14 -4,-33l-21 -108c-12,-49 -20,-100 -39,-143l-80 -163c-1,-1 -2,-3 -3,-5l-147 -225c-10,-13 -7,-8 -16,-22l-121 -144c-31,-42 -71,-76 -100,-120 -12,-18 7,7 -6,-9l-34 -34c-43,-40 -75,-94 -111,-139 -2,-2 -16,-22 -16,-22l-116 -271 0 -228c0,-29 10,0 15,-46l16 -98c4,-39 15,-48 24,-90l42 -117c21,-42 29,-74 56,-111l112 -162c13,-20 -2,-1 12,-18 46,-58 104,-104 150,-161 17,-21 8,-14 20,-33 30,-45 76,-77 112,-138l44 -93c6,-22 12,-69 12,-94l-1389 0c0,87 1,55 9,75l95 163c10,11 17,15 27,26 19,20 12,15 26,35 9,12 15,19 25,28l27 26c1,1 3,3 4,4l52 62c8,10 17,17 27,26 24,23 28,42 49,65 43,45 70,101 104,154l79 179c7,17 0,-4 9,22 0,1 4,16 5,18 3,10 4,15 7,23 9,24 2,1 8,22l41 187c5,81 15,185 2,269l-28 108c-28,78 -35,72 -69,136 -40,76 -4,10 -45,69l-96 124c-21,30 -47,46 -70,74l-43 56c-1,1 -3,3 -4,4l-127 139c-9,13 -5,11 -14,24l-52 62c-38,40 -70,97 -98,145l-23 46c-1,1 -2,3 -3,5l-103 239c-7,21 -3,2 -11,27l-23 90c-3,29 -4,38 -7,69 -5,48 -15,29 -15,53l0 159 -463 0c-18,0 -23,-5 -23,-23 0,-121 7,-70 14,-115 6,-37 -1,-96 10,-127 15,-47 8,-130 20,-169l30 -137c1,-4 3,-15 4,-19 2,-10 2,-22 6,-39l84 -243c4,-10 9,-21 17,-36l126 -223c27,-44 67,-78 92,-121 9,-16 4,-10 19,-26 16,-17 29,-28 46,-45 19,-19 31,-29 51,-48l46 -45c16,-13 -9,6 9,-6 1,-1 3,-2 5,-3 45,-30 140,-129 189,-168 53,-43 73,-64 116,-119 13,-16 9,-10 22,-23 27,-26 38,-59 56,-88 10,-15 7,-8 18,-28 12,-23 13,-38 23,-67 28,-78 31,-230 10,-310l-12 -33c-12,-42 -35,-91 -63,-127l-63 -82c-30,-43 -77,-73 -115,-112 -9,-9 -18,-19 -27,-26 -18,-13 -13,-6 -29,-17 -11,-7 -14,-12 -23,-22 -5,-6 -5,-6 -11,-12l-41 -35c-13,-9 -12,-7 -25,-20l-78 -67c-28,-17 -47,-43 -71,-66l-39 -52c-12,-18 -28,-28 -43,-48l-137 -197c-10,-15 -8,-15 -15,-31 -12,-23 -23,-45 -33,-65 -5,-10 -10,-21 -15,-31l-79 -225c-34,-97 -37,-197 -49,-232l-6 -16c-4,-13 -10,-75 -11,-88 -4,-99 -16,-76 -15,-167 0,-42 -16,-60 -16,-76l0 -91zm3955 -934l-5101 0c-13,26 -18,236 -4,284l62 112c26,29 40,28 73,48 75,46 232,26 323,26 0,126 -31,313 82,404l77 45c57,19 76,15 145,15l11 88c19,62 -4,212 16,280 8,26 7,-3 11,42 3,41 7,98 18,134 17,53 15,112 35,163 1,2 2,4 2,5l51 177c4,12 5,23 10,36l174 358c33,45 61,112 100,150l118 133c21,37 49,42 76,69l174 168c26,25 49,32 76,60l80 72c10,14 5,10 19,27 80,95 77,179 -11,266l-109 96c-1,1 -3,3 -4,4l-26 27c-1,1 -3,3 -4,4 0,0 -12,11 -12,11l-82 70c-42,28 -75,65 -111,101l-212 243c-1,1 -2,3 -3,5l-39 60c-7,10 -11,14 -18,27l-119 222c-3,8 -11,23 -15,31l-120 366c-1,5 -10,38 -10,39 -6,58 -23,92 -28,135 -9,67 -4,69 -21,138 -15,61 -3,175 -10,240 -6,53 -15,28 -15,122 -43,0 -93,-5 -133,4 -25,6 -29,10 -46,22 -58,41 -59,35 -98,107 -37,67 -27,161 -27,239 0,59 17,90 -37,92 -52,2 -90,-6 -130,-9 -42,-2 -79,-3 -116,13 -23,9 -26,10 -48,21 -61,29 -97,68 -119,132l-14 276c3,60 47,37 160,37l1556 0 814 1593 862 -1593 1580 0c163,0 144,34 144,-122 0,-52 11,-121 -5,-170l-27 -64c-20,-26 -33,-55 -65,-72l-88 -41c-80,-31 -162,7 -248,-2 -31,-3 -29,-6 -31,-38l1 -198c-3,-61 -38,-148 -87,-178 -95,-58 -89,-50 -216,-50 0,-88 -16,-96 -15,-182 1,-99 -14,-176 -26,-270l-39 -211c-1,-2 -1,-4 -2,-6 -2,-7 -4,-12 -6,-17 -9,-25 -5,-7 -12,-42l-22 -77c-4,-19 -2,-21 -8,-38l-25 -74c-24,-70 -59,-138 -90,-206l-86 -157 -283 -355c-21,-17 -14,-8 -33,-20 -43,-29 -72,-75 -116,-104 -28,-19 -56,-57 -70,-66l-73 -63c-14,-10 -3,-2 -14,-9l-22 -16c-1,-1 -3,-3 -4,-4 -1,-1 -2,-3 -3,-4 -35,-38 -59,-53 -81,-101 -17,-37 -15,-112 11,-144l200 -194c22,-20 11,-8 32,-21 42,-26 92,-80 127,-116l148 -148c50,-49 96,-110 135,-169l168 -311c12,-35 24,-35 33,-65l39 -113c23,-58 26,-106 47,-166l19 -99c0,-1 1,-3 1,-5l32 -201c5,-29 6,-10 12,-34 6,-24 10,-156 10,-187 0,-132 15,-108 15,-175 28,0 73,3 99,0 19,-2 12,-2 24,-6 2,-1 4,-2 5,-2 2,-1 4,-2 5,-2 38,-14 62,-26 96,-56 30,-26 60,-78 68,-122 15,-83 6,-189 6,-275 78,0 158,2 236,0 54,-1 129,-37 161,-74 25,-29 55,-79 64,-118 12,-51 8,-251 -5,-279z"/>
 </g>
</svg>
